# xmcd
#
# Track frame offsets: 
#        182
#        9140
#        21850
#        37120
#        47832
#        57390
#        67797
#        78055
#        88022
#        101615
#        115347
#        125635
#        136990
#        147330
#        160477
#        172345
#        183335
#        195767
#        208110
#        220305
#
# Disc length: 3091 seconds
#
# Revision: 0
# Processed by: cddbd v1.5.1PL0 Copyright (c) Steve Scherf et al.
# Submitted via: ExactAudioCopy v0.95b2
#
DISCID=1b0c1114
DTITLE=Lazy Lester - Lazy Lester
DYEAR=1989
DGENRE=Blues
TTITLE0=Tell Me Pretty Baby
TTITLE1=Whoa Now
TTITLE2=They Call Me Lazy
TTITLE3=Bloodstains
TTITLE4=Come On Home
TTITLE5=Quit Foolin' Myself
TTITLE6=I'm Leavin'
TTITLE7=Lester's Stomp
TTITLE8=Strange Things Happen
TTITLE9=I'm So Tired
TTITLE10=Lover Not A Fighter
TTITLE11=Late Late In The Evening
TTITLE12=Whoa Now
TTITLE13=Poor Boy Blues
TTITLE14=A Word About A Woman
TTITLE15=The Same Thing Could Happen To You
TTITLE16=I'm So Glad
TTITLE17=Sugar-Coated Love
TTITLE18=Patrol Wagon
TTITLE19=You Gonna Lose Your Head
EXTD=
EXTT0=
EXTT1=
EXTT2=
EXTT3=
EXTT4=
EXTT5=
EXTT6=
EXTT7=
EXTT8=
EXTT9=
EXTT10=
EXTT11=
EXTT12=
EXTT13=
EXTT14=
EXTT15=
EXTT16=
EXTT17=
EXTT18=
EXTT19=
PLAYORDER=
